<?xml version="1.0" encoding="UTF-8"?>
<!DOCTYPE svg PUBLIC "-//W3C//DTD SVG 1.1//EN" "http://www.w3.org/Graphics/SVG/1.1/DTD/svg11.dtd">
<svg xmlns="http://www.w3.org/2000/svg" version="1.1" width="220px" height="229px" style="shape-rendering:geometricPrecision; text-rendering:geometricPrecision; image-rendering:optimizeQuality; fill-rule:evenodd; clip-rule:evenodd" xmlns:xlink="http://www.w3.org/1999/xlink">
<g><path style="opacity:1" fill="#f7f6f6" d="M -0.5,-0.5 C 72.8333,-0.5 146.167,-0.5 219.5,-0.5C 219.5,75.8333 219.5,152.167 219.5,228.5C 146.167,228.5 72.8333,228.5 -0.5,228.5C -0.5,152.167 -0.5,75.8333 -0.5,-0.5 Z"/></g>
<g><path style="opacity:1" fill="#fa9d55" d="M 18.5,70.5 C 19.1667,70.5 19.8333,70.5 20.5,70.5C 18.04,77.3356 16.04,84.3356 14.5,91.5C 14.2528,92.7133 13.5862,93.38 12.5,93.5C 13.4081,85.5339 15.4081,77.8672 18.5,70.5 Z"/></g>
<g><path style="opacity:1" fill="#fcc294" d="M 91.5,11.5 C 91.5,11.8333 91.5,12.1667 91.5,12.5C 57.922,19.7783 34.2554,39.1116 20.5,70.5C 19.8333,70.5 19.1667,70.5 18.5,70.5C 32.3877,37.9489 56.721,18.2822 91.5,11.5 Z"/></g>
<g><path style="opacity:1" fill="#f87912" d="M 138.5,14.5 C 176.357,27.5313 198.524,53.8647 205,93.5C 208.234,146.228 185.067,181.394 135.5,199C 91.8477,209.119 56.3477,196.619 29,161.5C 15.4261,140.798 9.92611,118.132 12.5,93.5C 13.5862,93.38 14.2528,92.7133 14.5,91.5C 16.04,84.3356 18.04,77.3356 20.5,70.5C 34.2554,39.1116 57.922,19.7783 91.5,12.5C 106.885,10.4549 122.051,11.4549 137,15.5C 137.765,15.4301 138.265,15.0967 138.5,14.5 Z"/></g>
<g><path style="opacity:1" fill="#faa058" d="M 122.5,10.5 C 128.212,10.7764 133.545,12.1097 138.5,14.5C 138.265,15.0967 137.765,15.4301 137,15.5C 122.051,11.4549 106.885,10.4549 91.5,12.5C 91.5,12.1667 91.5,11.8333 91.5,11.5C 101.802,10.6 112.135,10.2667 122.5,10.5 Z"/></g>
<g><path style="opacity:1" fill="#fcbd8b" d="M 122.5,10.5 C 112.135,10.2667 101.802,10.6 91.5,11.5C 92.2625,10.7321 93.2625,10.2321 94.5,10C 104.009,9.17569 113.343,9.34235 122.5,10.5 Z"/></g>
</svg>
